<svg width="867" height="247" viewBox="0 0 867 247" fill="none" xmlns="http://www.w3.org/2000/svg">
<g filter="url(#filter0_d_87_1308)">
<path d="M29.2784 238.72C27.3584 238.72 26.3984 238.4 26.3984 237.76C27.2518 229.227 28.1051 218.24 28.9584 204.8C30.0251 191.147 30.6651 176.533 30.8784 160.96C27.2518 160.96 23.5184 160.96 19.6784 160.96C16.0518 160.96 12.6384 160.853 9.43844 160.64C7.30511 158.72 5.81177 156.48 4.95844 153.92C4.31844 151.147 3.99844 149.12 3.99844 147.84C3.99844 146.133 4.31844 145.28 4.95844 145.28C8.37177 145.92 11.9984 146.347 15.8384 146.56C19.6784 146.56 24.6918 146.56 30.8784 146.56C30.6651 131.2 29.7051 115.947 27.9984 100.8C26.5051 85.6534 23.9451 71.7867 20.3184 59.2001C16.6918 46.4001 11.6784 36.2667 5.27844 28.8001L20.3184 7.36008C32.0518 15.4667 43.6784 22.2934 55.1984 27.8401C66.9318 33.3867 77.9184 38.5067 88.1584 43.2001C98.6118 47.6801 107.785 52.3734 115.678 57.2801C123.785 61.9734 130.078 67.5201 134.558 73.9201C139.252 80.1067 141.598 87.7867 141.598 96.9601C141.598 103.36 140.105 109.973 137.118 116.8C134.345 123.627 129.545 130.133 122.718 136.32C115.892 142.293 106.505 147.52 94.5584 152C82.8251 156.267 67.9984 159.04 50.0784 160.32C49.0118 172.907 47.7318 185.387 46.2384 197.76C44.7451 210.133 43.2518 222.187 41.7584 233.92C40.2651 235.413 38.1318 236.587 35.3584 237.44C32.7984 238.293 30.7718 238.72 29.2784 238.72ZM51.0384 144.96C71.3051 141.973 86.0251 136.107 95.1984 127.36C104.585 118.613 109.278 109.12 109.278 98.8801C109.278 89.4934 106.505 81.7067 100.958 75.5201C95.4118 69.1201 87.9451 63.4667 78.5584 58.5601C69.1718 53.4401 58.6118 48.3201 46.8784 43.2001C49.0118 54.9334 50.3984 66.1334 51.0384 76.8001C51.8918 87.4667 52.3184 98.4534 52.3184 109.76C52.3184 115.52 52.2118 121.387 51.9984 127.36C51.7851 133.12 51.4651 138.987 51.0384 144.96ZM164.468 237.44C162.762 237.44 161.908 237.013 161.908 236.16C165.108 220.373 167.242 205.867 168.308 192.64C169.588 179.413 170.228 167.467 170.228 156.8C170.228 136.533 168.948 120 166.388 107.2C164.042 94.4001 162.015 84.6934 160.308 78.0801L167.988 72.6401L193.908 86.4001C194.548 93.0134 195.082 99.7334 195.508 106.56C195.935 113.173 196.148 120 196.148 127.04V133.12H198.708C210.015 101.12 225.908 81.1734 246.388 73.2801L253.108 79.3601L245.428 116.16C243.935 115.733 242.335 115.413 240.628 115.2C239.135 114.987 237.748 114.88 236.468 114.88C227.722 114.88 220.788 118.187 215.668 124.8C210.762 131.2 206.282 140.693 202.228 153.28C198.175 165.653 193.162 180.907 187.188 199.04L176.308 232.64C175.028 234.133 173.108 235.307 170.548 236.16C167.988 237.013 165.962 237.44 164.468 237.44ZM300.501 234.88C287.061 234.88 276.714 229.973 269.461 220.16C262.208 210.347 258.581 197.547 258.581 181.76C258.581 171.733 259.968 161.387 262.741 150.72C265.728 139.84 270.528 129.387 277.141 119.36C283.968 109.333 293.141 100.48 304.661 92.8001C316.181 85.1201 330.581 79.2534 347.861 75.2001C355.328 77.7601 360.448 82.4534 363.221 89.2801C365.994 96.1067 367.381 103.04 367.381 110.08C364.821 120.533 360.021 129.493 352.981 136.96C346.154 144.427 338.368 150.613 329.621 155.52C320.874 160.213 312.554 163.947 304.661 166.72C296.768 169.28 290.581 170.987 286.101 171.84C287.168 182.933 290.048 190.933 294.741 195.84C299.648 200.747 305.194 203.2 311.381 203.2C321.194 203.2 330.368 199.04 338.901 190.72C347.434 182.187 355.221 170.56 362.261 155.84C362.688 154.56 363.434 153.92 364.501 153.92C365.568 153.92 367.061 154.453 368.981 155.52C370.901 156.373 372.608 157.333 374.101 158.4C368.341 172.48 361.408 185.387 353.301 197.12C345.408 208.64 336.874 217.813 327.701 224.64C318.741 231.467 309.674 234.88 300.501 234.88ZM286.101 159.04C298.901 155.627 309.354 151.253 317.461 145.92C325.568 140.373 331.541 134.613 335.381 128.64C339.221 122.453 341.141 116.8 341.141 111.68C341.141 108.693 340.181 106.133 338.261 104C336.341 101.653 333.568 100.48 329.941 100.48C325.034 100.48 319.274 102.613 312.661 106.88C306.261 110.933 300.394 117.227 295.061 125.76C289.941 134.293 286.954 145.387 286.101 159.04ZM403.471 237.76C401.764 237.76 400.911 237.227 400.911 236.16C406.671 211.627 410.618 188.48 412.751 166.72C414.884 144.747 415.951 124.693 415.951 106.56C415.951 92.4801 415.311 78.9334 414.031 65.9201C412.751 52.9067 411.151 41.1734 409.231 30.7201C407.311 20.0534 405.391 11.5201 403.471 5.12008L411.471 8.39233e-05L437.071 12.1601C439.631 29.2267 440.698 47.6801 440.271 67.5201C440.058 87.3601 438.884 107.413 436.751 127.68C434.618 147.733 431.844 166.827 428.431 184.96C425.231 203.093 421.818 218.88 418.191 232.32C416.698 233.813 414.351 235.093 411.151 236.16C407.951 237.227 405.391 237.76 403.471 237.76ZM603.211 236.8C601.718 236.8 599.584 236.373 596.811 235.52C594.251 234.667 592.331 233.6 591.051 232.32C587.424 223.573 584.224 212.907 581.451 200.32C578.678 187.52 576.438 175.04 574.731 162.88C568.971 176.96 562.251 189.44 554.571 200.32C546.891 210.987 538.998 219.413 530.891 225.6C522.784 231.787 514.998 234.88 507.531 234.88C498.358 234.88 491.744 231.467 487.691 224.64C483.851 217.813 481.931 209.173 481.931 198.72C481.931 179.733 483.318 160.64 486.091 141.44C488.864 122.027 491.531 101.973 494.091 81.2801C495.371 80.0001 497.611 78.9334 500.811 78.0801C504.011 77.2267 506.358 76.8001 507.851 76.8001C509.344 76.8001 510.091 77.2267 510.091 78.0801C508.811 90.2401 507.744 102.187 506.891 113.92C506.038 125.653 505.611 136.427 505.611 146.24C505.611 161.173 506.891 173.333 509.451 182.72C512.224 191.893 517.238 196.48 524.491 196.48C531.958 196.48 539.958 191.253 548.491 180.8C557.238 170.347 564.918 154.773 571.531 134.08C571.318 131.52 571.211 129.173 571.211 127.04C571.211 124.907 571.211 122.987 571.211 121.28C571.211 110.827 571.424 102.933 571.851 97.6001C572.491 92.0534 573.238 86.6134 574.091 81.2801L599.691 70.0801L607.691 74.5601C604.491 83.9467 601.931 95.2534 600.011 108.48C598.091 121.707 597.131 134.293 597.131 146.24C597.131 152 597.344 159.147 597.771 167.68C598.411 176.213 599.051 185.067 599.691 194.24C600.544 203.2 601.504 211.52 602.571 219.2C603.638 226.667 604.598 232.213 605.451 235.84C605.451 236.48 604.704 236.8 603.211 236.8ZM646.968 237.44C645.262 237.44 644.408 237.013 644.408 236.16C647.608 220.373 649.742 205.867 650.808 192.64C652.088 179.413 652.728 167.467 652.728 156.8C652.728 136.533 651.448 120 648.888 107.2C646.542 94.4001 644.515 84.6934 642.808 78.0801L650.488 72.6401L676.408 86.4001C677.048 93.0134 677.582 99.7334 678.008 106.56C678.435 113.173 678.648 120 678.648 127.04V133.12H681.208C692.515 101.12 708.408 81.1734 728.888 73.2801L735.608 79.3601L727.928 116.16C726.435 115.733 724.835 115.413 723.128 115.2C721.635 114.987 720.248 114.88 718.968 114.88C710.222 114.88 703.288 118.187 698.168 124.8C693.262 131.2 688.782 140.693 684.728 153.28C680.675 165.653 675.662 180.907 669.688 199.04L658.808 232.64C657.528 234.133 655.608 235.307 653.048 236.16C650.488 237.013 648.462 237.44 646.968 237.44ZM858.521 236.8C857.028 236.8 855.001 236.373 852.441 235.52C849.881 234.667 847.961 233.6 846.681 232.32C842.841 223.573 839.534 212.907 836.761 200.32C834.201 187.52 832.068 174.933 830.361 162.56C824.388 176.64 817.561 189.12 809.881 200C802.201 210.88 794.308 219.413 786.201 225.6C778.308 231.787 770.628 234.88 763.161 234.88C753.561 234.88 746.521 231.467 742.041 224.64C737.774 217.813 735.641 209.173 735.641 198.72C735.641 184.213 738.414 170.88 743.961 158.72C749.508 146.347 756.868 135.253 766.041 125.44C775.428 115.413 785.561 106.773 796.441 99.5201C807.534 92.0534 818.521 85.9734 829.401 81.2801L855.321 70.0801L863.001 74.5601C859.801 83.9467 857.241 95.2534 855.321 108.48C853.401 121.707 852.441 134.293 852.441 146.24C852.441 152 852.654 159.147 853.081 167.68C853.721 176.213 854.468 185.067 855.321 194.24C856.174 203.2 857.028 211.52 857.881 219.2C858.948 226.667 859.908 232.213 860.761 235.84C860.761 236.48 860.014 236.8 858.521 236.8ZM781.721 196.48C788.121 196.48 795.588 191.253 804.121 180.8C812.654 170.347 820.334 154.56 827.161 133.44C826.948 131.093 826.841 128.96 826.841 127.04C826.841 124.907 826.841 122.987 826.841 121.28C826.841 115.947 826.841 111.36 826.841 107.52C826.841 103.68 826.948 100.267 827.161 97.2801C817.348 102.827 807.748 109.227 798.361 116.48C788.974 123.52 781.188 131.733 775.001 141.12C768.814 150.293 765.721 160.853 765.721 172.8C765.721 179.627 766.788 185.28 768.921 189.76C771.268 194.24 775.534 196.48 781.721 196.48Z" fill="#AB28B2"/>
</g>
<defs>
<filter id="filter0_d_87_1308" x="0" y="0" width="867" height="246.72" filterUnits="userSpaceOnUse" color-interpolation-filters="sRGB">
<feFlood flood-opacity="0" result="BackgroundImageFix"/>
<feColorMatrix in="SourceAlpha" type="matrix" values="0 0 0 0 0 0 0 0 0 0 0 0 0 0 0 0 0 0 127 0" result="hardAlpha"/>
<feOffset dy="4"/>
<feGaussianBlur stdDeviation="2"/>
<feComposite in2="hardAlpha" operator="out"/>
<feColorMatrix type="matrix" values="0 0 0 0 0 0 0 0 0 0 0 0 0 0 0 0 0 0 0.25 0"/>
<feBlend mode="normal" in2="BackgroundImageFix" result="effect1_dropShadow_87_1308"/>
<feBlend mode="normal" in="SourceGraphic" in2="effect1_dropShadow_87_1308" result="shape"/>
</filter>
</defs>
</svg>
