<svg width="50" height="50" viewBox="0 0 50 50" fill="none" xmlns="http://www.w3.org/2000/svg">
<path fill-rule="evenodd" clip-rule="evenodd" d="M25 0C38.8062 0 50 11.1938 50 25C50 38.8062 38.8062 50 25 50C11.1938 50 0 38.8062 0 25C0 11.1938 11.1938 0 25 0ZM28.7516 14.0096C30.3426 10.5591 33.8298 12.5814 32.5968 14.8519L21.2321 35.8114C19.4377 39.7054 16.1865 37.1786 17.3828 34.9691L28.7516 14.0096ZM11.2752 19.0592C11.2752 18.1193 11.4827 17.216 11.8937 16.3656C12.3088 15.5111 12.9395 14.856 13.7899 14.4002C14.6362 13.9445 15.6372 13.7126 16.8009 13.7126C18.5059 13.7126 19.8527 14.1968 20.8333 15.1693C21.814 16.1418 22.3063 17.4398 22.3063 19.0592C22.3063 20.695 21.818 21.9971 20.8333 22.9696C19.8527 23.9421 18.5059 24.4263 16.8009 24.4263C15.6372 24.4263 14.6362 24.1943 13.7899 23.7386C12.9435 23.2788 12.3088 22.6278 11.8937 21.7733C11.4787 20.9229 11.2752 20.0155 11.2752 19.0592ZM15.1774 19.0877C15.1774 20.2311 15.3646 21.0612 15.7349 21.578C15.979 21.9198 16.333 22.0907 16.7969 22.0907C17.2567 22.0907 17.6025 21.9157 17.8426 21.578C18.2048 21.0612 18.4001 20.2352 18.4001 19.0877C18.4001 17.9565 18.2129 17.1265 17.8426 16.6056C17.6107 16.276 17.2567 16.1051 16.7969 16.1051C16.333 16.1051 15.9749 16.272 15.7349 16.6056C15.3646 17.1143 15.1774 17.9484 15.1774 19.0877ZM27.6978 31.5063C27.6978 30.5501 27.9012 29.6468 28.3122 28.8005C28.7191 27.95 29.3538 27.2909 30.2043 26.8311C31.0547 26.3672 32.0557 26.1393 33.2113 26.1393C34.9243 26.1393 36.2752 26.6276 37.2599 27.6082C38.2446 28.5848 38.7329 29.8869 38.7329 31.5104C38.7329 33.134 38.2446 34.436 37.2599 35.4126C36.2793 36.3892 34.9284 36.8815 33.2113 36.8815C32.0557 36.8815 31.0588 36.6496 30.2043 36.1898C29.3538 35.73 28.7231 35.0667 28.3122 34.2204C27.9053 33.3618 27.6978 32.4585 27.6978 31.5063ZM31.604 31.5389C31.604 32.6864 31.7912 33.5246 32.1615 34.0413C32.3934 34.3709 32.7474 34.5418 33.2113 34.5418C33.6711 34.5418 34.0291 34.375 34.2692 34.0413C34.6395 33.5246 34.8267 32.6864 34.8267 31.5389C34.8267 30.3955 34.6436 29.5492 34.2692 29.0283C34.0332 28.6947 33.6711 28.5278 33.2113 28.5278C32.7474 28.5278 32.3975 28.7028 32.1615 29.0405C31.7952 29.5614 31.604 30.3955 31.604 31.5389Z" fill="#D62228"/>
</svg>
