<svg width="185" height="192" viewBox="0 0 185 192" fill="none" xmlns="http://www.w3.org/2000/svg">
<path d="M159.216 136H163.802C169.121 136 173.437 131.52 173.437 126V106.12C173.437 104.72 173.158 103.34 172.609 102.06L160.564 73.94C159.013 70.33 155.564 68 151.758 68H125.251C119.932 68 115.615 72.48 115.615 78V135.99H124.74" stroke="black" stroke-width="7" stroke-linecap="round" stroke-linejoin="round"/>
<path d="M173.081 103.98H144.531C139.212 103.99 134.896 99.52 134.896 93.99V90C134.896 84.48 139.212 80 144.531 80H163.147" stroke="black" stroke-width="7" stroke-linecap="round" stroke-linejoin="round"/>
<path d="M31.9029 136H21.1979C15.8792 136 11.5625 131.52 11.5625 126V46C11.5625 40.48 15.8792 36 21.1979 36H92.5L115.625 60V136H66.3784" stroke="black" stroke-width="7" stroke-linecap="round" stroke-linejoin="round"/>
<path d="M49.1406 156C58.7193 156 66.4844 147.941 66.4844 138C66.4844 128.059 58.7193 120 49.1406 120C39.5619 120 31.7969 128.059 31.7969 138C31.7969 147.941 39.5619 156 49.1406 156Z" stroke="black" stroke-width="7" stroke-linecap="round" stroke-linejoin="round"/>
<path d="M141.978 156C151.556 156 159.321 147.941 159.321 138C159.321 128.059 151.556 120 141.978 120C132.399 120 124.634 128.059 124.634 138C124.634 147.941 132.399 156 141.978 156Z" stroke="black" stroke-width="7" stroke-linecap="round" stroke-linejoin="round"/>
<path d="M115.625 60H102.135C96.8167 60 92.5 55.52 92.5 50V36" stroke="black" stroke-width="7" stroke-linecap="round" stroke-linejoin="round"/>
<path d="M92.5 84H34.6875" stroke="black" stroke-width="7" stroke-linecap="round" stroke-linejoin="round"/>
<path d="M34.6875 68H92.5" stroke="black" stroke-width="7" stroke-linecap="round" stroke-linejoin="round"/>
<path d="M34.6875 100H92.5" stroke="black" stroke-width="7" stroke-linecap="round" stroke-linejoin="round"/>
</svg>
