<svg width="246" height="22" viewBox="0 0 246 22" fill="none" xmlns="http://www.w3.org/2000/svg">
<path d="M7.23535 21.7822C5.84375 21.7822 5.08203 21.1084 4.64258 19.5264L0.233398 3.53027C0.0869141 2.98828 -0.000976562 2.46094 -0.000976562 2.06543C-0.000976562 0.834961 0.833984 0.0732422 2.18164 0.0732422C3.33887 0.0732422 4.04199 0.717773 4.30566 1.97754L7.46973 15.6738H7.58691L11.1465 2.05078C11.4834 0.673828 12.1865 0.0732422 13.417 0.0732422C14.6182 0.0732422 15.3506 0.717773 15.6729 2.02148L19.2324 15.6738H19.3496L22.5137 1.97754C22.792 0.703125 23.4951 0.0732422 24.6523 0.0732422C26 0.0732422 26.835 0.834961 26.835 2.06543C26.835 2.44629 26.7471 2.97363 26.6006 3.53027L22.1768 19.5557C21.7373 21.1084 20.9756 21.7822 19.6133 21.7822C18.1924 21.7822 17.416 21.123 16.9912 19.541L13.4756 7.06055H13.3438L9.84277 19.541C9.41797 21.0938 8.62695 21.7822 7.23535 21.7822ZM39.374 21.5039C37.9824 21.5039 37.1621 20.6543 37.1621 19.1895V2.66602C37.1621 1.21582 37.9824 0.366211 39.374 0.366211H49.4229C50.6387 0.366211 51.4297 1.05469 51.4297 2.19727C51.4297 3.33984 50.624 4.02832 49.4229 4.02832H41.5859V9.11133H49.042C50.1406 9.11133 50.8877 9.75586 50.8877 10.8105C50.8877 11.8652 50.1553 12.5098 49.042 12.5098H41.5859V17.8418H49.4229C50.624 17.8418 51.4297 18.5303 51.4297 19.6729C51.4297 20.8154 50.6387 21.5039 49.4229 21.5039H39.374ZM63.2656 21.7822C61.8887 21.7822 61.0244 20.9766 61.0244 19.7021C61.0244 19.3359 61.127 18.8379 61.3174 18.2959L67.0889 2.57812C67.7041 0.864258 68.7441 0.0732422 70.4141 0.0732422C72.1426 0.0732422 73.168 0.834961 73.7979 2.56348L79.5986 18.2959C79.8037 18.8672 79.877 19.2627 79.877 19.7021C79.877 20.918 78.9541 21.7822 77.665 21.7822C76.4199 21.7822 75.7607 21.2109 75.3652 19.834L74.252 16.4941H66.6201L65.5068 19.79C65.0967 21.1963 64.4375 21.7822 63.2656 21.7822ZM67.5869 13.0664H73.2266L70.4287 4.40918H70.3262L67.5869 13.0664ZM92.2842 21.8115C90.9072 21.8115 90.0723 20.9619 90.0723 19.5117V2.66602C90.0723 1.21582 90.8926 0.366211 92.2842 0.366211H98.7295C103.593 0.366211 106.376 2.92969 106.376 7.10449C106.376 9.74121 105.072 11.9971 102.743 12.9932L105.79 18.2666C106.156 18.8965 106.259 19.2773 106.259 19.79C106.259 20.9619 105.321 21.8115 104.032 21.8115C102.978 21.8115 102.494 21.4307 101.776 20.1416L98.2607 13.7695H94.4961V19.5117C94.4961 20.9619 93.6758 21.8115 92.2842 21.8115ZM94.4961 10.5615H98.3047C100.531 10.5615 101.835 9.28711 101.835 7.19238C101.835 5.1416 100.458 3.82324 98.2607 3.82324H94.4961V10.5615ZM119.003 21.7822C117.611 21.7822 116.791 20.9326 116.791 19.4824V2.3877C116.791 0.922852 117.611 0.0732422 119.003 0.0732422C120.395 0.0732422 121.215 0.922852 121.215 2.3877V8.9502H130.736V2.3877C130.736 0.922852 131.557 0.0732422 132.948 0.0732422C134.34 0.0732422 135.16 0.922852 135.16 2.3877V19.4824C135.16 20.9326 134.34 21.7822 132.948 21.7822C131.557 21.7822 130.736 20.9326 130.736 19.4824V12.5977H121.215V19.4824C121.215 20.9326 120.395 21.7822 119.003 21.7822ZM155.712 21.8555C149.442 21.8555 145.517 17.666 145.517 10.9424C145.517 4.2041 149.442 0 155.712 0C161.967 0 165.907 4.2041 165.907 10.9424C165.907 17.666 161.967 21.8555 155.712 21.8555ZM155.712 18.1641C159.169 18.1641 161.381 15.3662 161.381 10.9424C161.381 6.50391 159.169 3.69141 155.712 3.69141C152.255 3.69141 150.028 6.50391 150.028 10.9424C150.028 15.3662 152.24 18.1641 155.712 18.1641ZM185.126 21.8555C179.706 21.8555 176.264 18.6914 176.264 14.0332V2.3877C176.264 0.922852 177.084 0.0732422 178.476 0.0732422C179.867 0.0732422 180.688 0.922852 180.688 2.3877V13.5938C180.688 16.3037 182.284 18.0762 185.126 18.0762C187.953 18.0762 189.55 16.3037 189.55 13.5938V2.3877C189.55 0.922852 190.37 0.0732422 191.762 0.0732422C193.153 0.0732422 193.974 0.922852 193.974 2.3877V14.0332C193.974 18.6914 190.531 21.8555 185.126 21.8555ZM212.738 21.8555C208.373 21.8555 205.575 20.1123 204.726 17.7979C204.579 17.417 204.491 17.0068 204.491 16.6113C204.491 15.4395 205.297 14.6631 206.439 14.6631C207.348 14.6631 207.948 15.0146 208.476 15.9521C209.164 17.5635 210.819 18.2959 212.841 18.2959C215.214 18.2959 216.825 17.1533 216.825 15.6006C216.825 14.209 215.829 13.418 213.178 12.876L210.937 12.4365C206.718 11.6016 204.652 9.58008 204.652 6.43066C204.652 2.56348 208.021 0 212.724 0C216.591 0 219.506 1.62598 220.443 4.37988C220.546 4.67285 220.604 4.98047 220.604 5.36133C220.604 6.41602 219.843 7.13379 218.715 7.13379C217.719 7.13379 217.104 6.73828 216.605 5.83008C215.902 4.2334 214.54 3.57422 212.724 3.57422C210.541 3.57422 209.091 4.59961 209.091 6.15234C209.091 7.45605 210.102 8.26172 212.606 8.75977L214.833 9.21387C219.315 10.1074 221.249 11.9092 221.249 15.1172C221.249 19.248 218.012 21.8555 212.738 21.8555ZM233.671 21.5039C232.279 21.5039 231.459 20.6543 231.459 19.1895V2.66602C231.459 1.21582 232.279 0.366211 233.671 0.366211H243.72C244.936 0.366211 245.727 1.05469 245.727 2.19727C245.727 3.33984 244.921 4.02832 243.72 4.02832H235.883V9.11133H243.339C244.438 9.11133 245.185 9.75586 245.185 10.8105C245.185 11.8652 244.452 12.5098 243.339 12.5098H235.883V17.8418H243.72C244.921 17.8418 245.727 18.5303 245.727 19.6729C245.727 20.8154 244.936 21.5039 243.72 21.5039H233.671Z" fill="#AB28B2"/>
</svg>
