<svg width="409" height="218" viewBox="0 0 409 218" fill="none" xmlns="http://www.w3.org/2000/svg">
<path d="M72.3633 217.09C58.4473 217.09 50.8301 210.352 46.4355 194.531L2.34375 34.5703C0.878906 29.1504 0 23.877 0 19.9219C0 7.61719 8.34961 0 21.8262 0C33.3984 0 40.4297 6.44531 43.0664 19.043L74.707 156.006H75.8789L111.475 19.7754C114.844 6.00586 121.875 0 134.18 0C146.191 0 153.516 6.44531 156.738 19.4824L192.334 156.006H193.506L225.146 19.043C227.93 6.29883 234.961 0 246.533 0C260.01 0 268.359 7.61719 268.359 19.9219C268.359 23.7305 267.48 29.0039 266.016 34.5703L221.777 194.824C217.383 210.352 209.766 217.09 196.143 217.09C181.934 217.09 174.17 210.498 169.922 194.678L134.766 69.873H133.447L98.4375 194.678C94.1895 210.205 86.2793 217.09 72.3633 217.09Z" fill="#AB28B2"/>
<path d="M246.75 217.09C232.834 217.09 224.631 208.594 224.631 194.092V23.1445C224.631 8.49609 232.834 0 246.75 0C260.666 0 268.869 8.49609 268.869 23.1445V88.7695H364.084V23.1445C364.084 8.49609 372.287 0 386.203 0C400.119 0 408.322 8.49609 408.322 23.1445V194.092C408.322 208.594 400.119 217.09 386.203 217.09C372.287 217.09 364.084 208.594 364.084 194.092V125.244H268.869V194.092C268.869 208.594 260.666 217.09 246.75 217.09Z" fill="#CC2FD4"/>
</svg>
