<svg width="750" height="750" viewBox="0 0 750 750" fill="none" xmlns="http://www.w3.org/2000/svg">
<path d="M0 0H750V750H0V0Z" fill="url(#paint0_linear_1_67752)"/>
<g filter="url(#filter0_d_1_67752)">
<path d="M298.761 612.8C294.561 612.8 292.461 612.1 292.461 610.7C294.328 592.033 296.194 568 298.061 538.6C300.394 508.733 301.794 476.767 302.261 442.7C294.328 442.7 286.161 442.7 277.761 442.7C269.828 442.7 262.361 442.467 255.361 442C250.694 437.8 247.428 432.9 245.561 427.3C244.161 421.233 243.461 416.8 243.461 414C243.461 410.267 244.161 408.4 245.561 408.4C253.028 409.8 260.961 410.733 269.361 411.2C277.761 411.2 288.728 411.2 302.261 411.2C301.794 377.6 299.694 344.233 295.961 311.1C292.694 277.967 287.094 247.633 279.161 220.1C271.228 192.1 260.261 169.933 246.261 153.6L279.161 106.7C304.828 124.433 330.261 139.367 355.461 151.5C381.128 163.633 405.161 174.833 427.561 185.1C450.428 194.9 470.494 205.167 487.761 215.9C505.494 226.167 519.261 238.3 529.061 252.3C539.328 265.833 544.461 282.633 544.461 302.7C544.461 316.7 541.194 331.167 534.661 346.1C528.594 361.033 518.094 375.267 503.161 388.8C488.228 401.867 467.694 413.3 441.561 423.1C415.894 432.433 383.461 438.5 344.261 441.3C341.928 468.833 339.128 496.133 335.861 523.2C332.594 550.267 329.328 576.633 326.061 602.3C322.794 605.567 318.128 608.133 312.061 610C306.461 611.867 302.028 612.8 298.761 612.8ZM346.361 407.7C390.694 401.167 422.894 388.333 442.961 369.2C463.494 350.067 473.761 329.3 473.761 306.9C473.761 286.367 467.694 269.333 455.561 255.8C443.428 241.8 427.094 229.433 406.561 218.7C386.028 207.5 362.928 196.3 337.261 185.1C341.928 210.767 344.961 235.267 346.361 258.6C348.228 281.933 349.161 305.967 349.161 330.7C349.161 343.3 348.928 356.133 348.461 369.2C347.994 381.8 347.294 394.633 346.361 407.7Z" fill="white"/>
</g>
<defs>
<filter id="filter0_d_1_67752" x="239.461" y="106.699" width="309" height="514.102" filterUnits="userSpaceOnUse" color-interpolation-filters="sRGB">
<feFlood flood-opacity="0" result="BackgroundImageFix"/>
<feColorMatrix in="SourceAlpha" type="matrix" values="0 0 0 0 0 0 0 0 0 0 0 0 0 0 0 0 0 0 127 0" result="hardAlpha"/>
<feOffset dy="4"/>
<feGaussianBlur stdDeviation="2"/>
<feComposite in2="hardAlpha" operator="out"/>
<feColorMatrix type="matrix" values="0 0 0 0 0 0 0 0 0 0 0 0 0 0 0 0 0 0 0.25 0"/>
<feBlend mode="normal" in2="BackgroundImageFix" result="effect1_dropShadow_1_67752"/>
<feBlend mode="normal" in="SourceGraphic" in2="effect1_dropShadow_1_67752" result="shape"/>
</filter>
<linearGradient id="paint0_linear_1_67752" x1="375" y1="264.375" x2="375" y2="832.5" gradientUnits="userSpaceOnUse">
<stop stop-color="#AB28B2"/>
<stop offset="1" stop-color="#49114C"/>
</linearGradient>
</defs>
</svg>
