<svg width="867" height="247" viewBox="0 0 867 247" fill="none" xmlns="http://www.w3.org/2000/svg">
<g filter="url(#filter0_d_1_67744)">
<path d="M29.2804 238.72C27.3604 238.72 26.4004 238.4 26.4004 237.76C27.2537 229.227 28.1071 218.24 28.9604 204.8C30.0271 191.147 30.6671 176.533 30.8804 160.96C27.2537 160.96 23.5204 160.96 19.6804 160.96C16.0537 160.96 12.6404 160.853 9.44039 160.64C7.30706 158.72 5.81372 156.48 4.96039 153.92C4.32039 151.147 4.00039 149.12 4.00039 147.84C4.00039 146.133 4.32039 145.28 4.96039 145.28C8.37372 145.92 12.0004 146.347 15.8404 146.56C19.6804 146.56 24.6937 146.56 30.8804 146.56C30.6671 131.2 29.7071 115.947 28.0004 100.8C26.5071 85.6532 23.9471 71.7865 20.3204 59.1998C16.6937 46.3998 11.6804 36.2665 5.28039 28.7998L20.3204 7.35984C32.0537 15.4665 43.6804 22.2932 55.2004 27.8398C66.9337 33.3865 77.9204 38.5065 88.1604 43.1998C98.6137 47.6798 107.787 52.3732 115.68 57.2798C123.787 61.9732 130.08 67.5198 134.56 73.9198C139.254 80.1065 141.6 87.7865 141.6 96.9598C141.6 103.36 140.107 109.973 137.12 116.8C134.347 123.627 129.547 130.133 122.72 136.32C115.894 142.293 106.507 147.52 94.5604 152C82.8271 156.267 68.0004 159.04 50.0804 160.32C49.0137 172.907 47.7337 185.387 46.2404 197.76C44.7471 210.133 43.2537 222.187 41.7604 233.92C40.2671 235.413 38.1337 236.587 35.3604 237.44C32.8004 238.293 30.7737 238.72 29.2804 238.72ZM51.0404 144.96C71.3071 141.973 86.0271 136.107 95.2004 127.36C104.587 118.613 109.28 109.12 109.28 98.8798C109.28 89.4932 106.507 81.7065 100.96 75.5198C95.4137 69.1198 87.9471 63.4665 78.5604 58.5598C69.1737 53.4398 58.6137 48.3198 46.8804 43.1998C49.0137 54.9332 50.4004 66.1332 51.0404 76.7998C51.8937 87.4665 52.3204 98.4532 52.3204 109.76C52.3204 115.52 52.2137 121.387 52.0004 127.36C51.7871 133.12 51.4671 138.987 51.0404 144.96ZM164.47 237.44C162.764 237.44 161.91 237.013 161.91 236.16C165.11 220.373 167.244 205.867 168.31 192.64C169.59 179.413 170.23 167.467 170.23 156.8C170.23 136.533 168.95 120 166.39 107.2C164.044 94.3998 162.017 84.6932 160.31 78.0798L167.99 72.6398L193.91 86.3998C194.55 93.0132 195.084 99.7332 195.51 106.56C195.937 113.173 196.15 120 196.15 127.04V133.12H198.71C210.017 101.12 225.91 81.1732 246.39 73.2798L253.11 79.3598L245.43 116.16C243.937 115.733 242.337 115.413 240.63 115.2C239.137 114.987 237.75 114.88 236.47 114.88C227.724 114.88 220.79 118.187 215.67 124.8C210.764 131.2 206.284 140.693 202.23 153.28C198.177 165.653 193.164 180.907 187.19 199.04L176.31 232.64C175.03 234.133 173.11 235.307 170.55 236.16C167.99 237.013 165.964 237.44 164.47 237.44ZM300.503 234.88C287.063 234.88 276.716 229.973 269.463 220.16C262.21 210.347 258.583 197.547 258.583 181.76C258.583 171.733 259.97 161.387 262.743 150.72C265.73 139.84 270.53 129.387 277.143 119.36C283.97 109.333 293.143 100.48 304.663 92.7998C316.183 85.1198 330.583 79.2532 347.863 75.1998C355.33 77.7598 360.45 82.4532 363.223 89.2798C365.996 96.1065 367.383 103.04 367.383 110.08C364.823 120.533 360.023 129.493 352.983 136.96C346.156 144.427 338.37 150.613 329.623 155.52C320.876 160.213 312.556 163.947 304.663 166.72C296.77 169.28 290.583 170.987 286.103 171.84C287.17 182.933 290.05 190.933 294.743 195.84C299.65 200.747 305.196 203.2 311.383 203.2C321.196 203.2 330.37 199.04 338.903 190.72C347.436 182.187 355.223 170.56 362.263 155.84C362.69 154.56 363.436 153.92 364.503 153.92C365.57 153.92 367.063 154.453 368.983 155.52C370.903 156.373 372.61 157.333 374.103 158.4C368.343 172.48 361.41 185.387 353.303 197.12C345.41 208.64 336.876 217.813 327.703 224.64C318.743 231.467 309.676 234.88 300.503 234.88ZM286.103 159.04C298.903 155.627 309.356 151.253 317.463 145.92C325.57 140.373 331.543 134.613 335.383 128.64C339.223 122.453 341.143 116.8 341.143 111.68C341.143 108.693 340.183 106.133 338.263 104C336.343 101.653 333.57 100.48 329.943 100.48C325.036 100.48 319.276 102.613 312.663 106.88C306.263 110.933 300.396 117.227 295.063 125.76C289.943 134.293 286.956 145.387 286.103 159.04ZM403.473 237.76C401.766 237.76 400.913 237.227 400.913 236.16C406.673 211.627 410.62 188.48 412.753 166.72C414.886 144.747 415.953 124.693 415.953 106.56C415.953 92.4798 415.313 78.9332 414.033 65.9198C412.753 52.9065 411.153 41.1732 409.233 30.7198C407.313 20.0532 405.393 11.5198 403.473 5.11983L411.473 -0.000160217L437.073 12.1598C439.633 29.2265 440.7 47.6798 440.273 67.5198C440.06 87.3598 438.886 107.413 436.753 127.68C434.62 147.733 431.846 166.827 428.433 184.96C425.233 203.093 421.82 218.88 418.193 232.32C416.7 233.813 414.353 235.093 411.153 236.16C407.953 237.227 405.393 237.76 403.473 237.76ZM603.213 236.8C601.72 236.8 599.586 236.373 596.813 235.52C594.253 234.667 592.333 233.6 591.053 232.32C587.426 223.573 584.226 212.907 581.453 200.32C578.68 187.52 576.44 175.04 574.733 162.88C568.973 176.96 562.253 189.44 554.573 200.32C546.893 210.987 539 219.413 530.893 225.6C522.786 231.787 515 234.88 507.533 234.88C498.36 234.88 491.746 231.467 487.693 224.64C483.853 217.813 481.933 209.173 481.933 198.72C481.933 179.733 483.32 160.64 486.093 141.44C488.866 122.027 491.533 101.973 494.093 81.2798C495.373 79.9998 497.613 78.9332 500.813 78.0798C504.013 77.2265 506.36 76.7998 507.853 76.7998C509.346 76.7998 510.093 77.2265 510.093 78.0798C508.813 90.2398 507.746 102.187 506.893 113.92C506.04 125.653 505.613 136.427 505.613 146.24C505.613 161.173 506.893 173.333 509.453 182.72C512.226 191.893 517.24 196.48 524.493 196.48C531.96 196.48 539.96 191.253 548.493 180.8C557.24 170.347 564.92 154.773 571.533 134.08C571.32 131.52 571.213 129.173 571.213 127.04C571.213 124.907 571.213 122.987 571.213 121.28C571.213 110.827 571.426 102.933 571.853 97.5998C572.493 92.0532 573.24 86.6132 574.093 81.2798L599.693 70.0798L607.693 74.5598C604.493 83.9465 601.933 95.2532 600.013 108.48C598.093 121.707 597.133 134.293 597.133 146.24C597.133 152 597.346 159.147 597.773 167.68C598.413 176.213 599.053 185.067 599.693 194.24C600.546 203.2 601.506 211.52 602.573 219.2C603.64 226.667 604.6 232.213 605.453 235.84C605.453 236.48 604.706 236.8 603.213 236.8ZM646.97 237.44C645.264 237.44 644.41 237.013 644.41 236.16C647.61 220.373 649.744 205.867 650.81 192.64C652.09 179.413 652.73 167.467 652.73 156.8C652.73 136.533 651.45 120 648.89 107.2C646.544 94.3998 644.517 84.6932 642.81 78.0798L650.49 72.6398L676.41 86.3998C677.05 93.0132 677.584 99.7332 678.01 106.56C678.437 113.173 678.65 120 678.65 127.04V133.12H681.21C692.517 101.12 708.41 81.1732 728.89 73.2798L735.61 79.3598L727.93 116.16C726.437 115.733 724.837 115.413 723.13 115.2C721.637 114.987 720.25 114.88 718.97 114.88C710.224 114.88 703.29 118.187 698.17 124.8C693.264 131.2 688.784 140.693 684.73 153.28C680.677 165.653 675.664 180.907 669.69 199.04L658.81 232.64C657.53 234.133 655.61 235.307 653.05 236.16C650.49 237.013 648.464 237.44 646.97 237.44ZM858.523 236.8C857.03 236.8 855.003 236.373 852.443 235.52C849.883 234.667 847.963 233.6 846.683 232.32C842.843 223.573 839.536 212.907 836.763 200.32C834.203 187.52 832.07 174.933 830.363 162.56C824.39 176.64 817.563 189.12 809.883 200C802.203 210.88 794.31 219.413 786.203 225.6C778.31 231.787 770.63 234.88 763.163 234.88C753.563 234.88 746.523 231.467 742.043 224.64C737.776 217.813 735.643 209.173 735.643 198.72C735.643 184.213 738.416 170.88 743.963 158.72C749.51 146.347 756.87 135.253 766.043 125.44C775.43 115.413 785.563 106.773 796.443 99.5198C807.536 92.0532 818.523 85.9732 829.403 81.2798L855.323 70.0798L863.003 74.5598C859.803 83.9465 857.243 95.2532 855.323 108.48C853.403 121.707 852.443 134.293 852.443 146.24C852.443 152 852.656 159.147 853.083 167.68C853.723 176.213 854.47 185.067 855.323 194.24C856.176 203.2 857.03 211.52 857.883 219.2C858.95 226.667 859.91 232.213 860.763 235.84C860.763 236.48 860.016 236.8 858.523 236.8ZM781.723 196.48C788.123 196.48 795.59 191.253 804.123 180.8C812.656 170.347 820.336 154.56 827.163 133.44C826.95 131.093 826.843 128.96 826.843 127.04C826.843 124.907 826.843 122.987 826.843 121.28C826.843 115.947 826.843 111.36 826.843 107.52C826.843 103.68 826.95 100.267 827.163 97.2798C817.35 102.827 807.75 109.227 798.363 116.48C788.976 123.52 781.19 131.733 775.003 141.12C768.816 150.293 765.723 160.853 765.723 172.8C765.723 179.627 766.79 185.28 768.923 189.76C771.27 194.24 775.536 196.48 781.723 196.48Z" fill="#AB28B2"/>
</g>
<defs>
<filter id="filter0_d_1_67744" x="0" y="0" width="867.003" height="246.719" filterUnits="userSpaceOnUse" color-interpolation-filters="sRGB">
<feFlood flood-opacity="0" result="BackgroundImageFix"/>
<feColorMatrix in="SourceAlpha" type="matrix" values="0 0 0 0 0 0 0 0 0 0 0 0 0 0 0 0 0 0 127 0" result="hardAlpha"/>
<feOffset dy="4"/>
<feGaussianBlur stdDeviation="2"/>
<feComposite in2="hardAlpha" operator="out"/>
<feColorMatrix type="matrix" values="0 0 0 0 0 0 0 0 0 0 0 0 0 0 0 0 0 0 0.25 0"/>
<feBlend mode="normal" in2="BackgroundImageFix" result="effect1_dropShadow_1_67744"/>
<feBlend mode="normal" in="SourceGraphic" in2="effect1_dropShadow_1_67744" result="shape"/>
</filter>
</defs>
</svg>
